<svg xmlns="http://www.w3.org/2000/svg" viewBox="0 0 64 64">
  <rect width="64" height="64" rx="14" fill="#111111"/>
  <path d="M10 38h4l5-10c1.2-2.4 3.5-4 6.2-4h13.6c2.7 0 5 1.6 6.2 4l5 10h4c1.1 0 2 .9 2 2v7c0 1.1-.9 2-2 2h-4.8c-.8 3.4-3.8 6-7.4 6s-6.6-2.6-7.4-6H29.6c-.8 3.4-3.8 6-7.4 6s-6.6-2.6-7.4-6H10c-1.1 0-2-.9-2-2v-7c0-1.1.9-2 2-2Z" fill="#d71920"/>
  <path d="M22.2 29.9c.6-1.2 1.8-1.9 3.1-1.9H31v10H17.8l4.4-8.1ZM35 28h3.7c1.3 0 2.5.7 3.1 1.9l4.4 8.1H35V28Z" fill="#ffffff"/>
  <path d="M18 42h28c1.1 0 2 .9 2 2s-.9 2-2 2H18c-1.1 0-2-.9-2-2s.9-2 2-2Z" fill="#8c1116" opacity=".65"/>
  <circle cx="22.2" cy="48" r="4" fill="#111111"/>
  <circle cx="41.8" cy="48" r="4" fill="#111111"/>
  <circle cx="22.2" cy="48" r="1.5" fill="#bbbbbb"/>
  <circle cx="41.8" cy="48" r="1.5" fill="#bbbbbb"/>
</svg>
